<svg width="390" height="527" viewBox="0 0 390 527" fill="none" xmlns="http://www.w3.org/2000/svg">
<g filter="url(#filter0_d_7_45)">
<rect x="237" y="201.241" width="138.92" height="52" transform="rotate(-45 237 201.241)" fill="#5D6CE6"/>
<rect x="328" y="197.241" width="245" height="52" transform="rotate(-45 328 197.241)" fill="#5D6CE6"/>
<rect x="54" y="293.241" width="203.103" height="52" transform="rotate(-45 54 293.241)" fill="#5D6CE6"/>
<rect x="265.479" y="349.762" width="84.5166" height="52" transform="rotate(-45 265.479 349.762)" fill="#5D6CE6"/>
<rect x="141.883" y="383.358" width="255.065" height="52" transform="rotate(-45 141.883 383.358)" fill="#5D6CE6"/>
<rect x="333" y="284.241" width="245" height="52" transform="rotate(-45 333 284.241)" fill="#5D6CE6"/>
<rect x="-52.4639" y="310.705" width="104.235" height="52" transform="rotate(-45 -52.4639 310.705)" fill="#5D6CE6"/>
<rect x="-155" y="323.241" width="286.223" height="52" transform="rotate(-45 -155 323.241)" fill="#5D6CE6"/>
<rect x="28" y="230.241" width="216.398" height="52" transform="rotate(-45 28 230.241)" fill="#5D6CE6"/>
<rect x="-126" y="473.241" width="245" height="52" transform="rotate(-45 -126 473.241)" fill="#5D6CE6"/>
<rect x="128.686" y="308.555" width="143.621" height="52" transform="rotate(-45 128.686 308.555)" fill="#5D6CE6"/>
</g>
<defs>
<filter id="filter0_d_7_45" x="-175" y="-1.52588e-05" width="738.011" height="526.011" filterUnits="userSpaceOnUse" color-interpolation-filters="sRGB">
<feFlood flood-opacity="0" result="BackgroundImageFix"/>
<feColorMatrix in="SourceAlpha" type="matrix" values="0 0 0 0 0 0 0 0 0 0 0 0 0 0 0 0 0 0 127 0" result="hardAlpha"/>
<feOffset dy="-4"/>
<feGaussianBlur stdDeviation="10"/>
<feComposite in2="hardAlpha" operator="out"/>
<feColorMatrix type="matrix" values="0 0 0 0 0 0 0 0 0 0 0 0 0 0 0 0 0 0 0.25 0"/>
<feBlend mode="normal" in2="BackgroundImageFix" result="effect1_dropShadow_7_45"/>
<feBlend mode="normal" in="SourceGraphic" in2="effect1_dropShadow_7_45" result="shape"/>
</filter>
</defs>
</svg>
