<svg width="64" height="64" viewBox="0 0 64 64" fill="none" xmlns="http://www.w3.org/2000/svg">
<circle cx="32" cy="32" r="32" fill="#2E3A99"/>
<path d="M15.558 35.652C15.082 35.652 14.704 35.47 14.424 35.106C14.172 34.714 14.046 34.196 14.046 33.552C14.046 32.124 14.634 31.41 15.81 31.41H20.262C21.298 31.41 22.026 31.116 22.446 30.528C22.894 29.94 23.118 29.296 23.118 28.596V21.708C23.118 21.008 22.894 20.364 22.446 19.776C22.026 19.188 21.298 18.894 20.262 18.894H11.442V46.32C11.442 47.664 10.602 48.336 8.92198 48.336C7.29798 48.336 6.48598 47.664 6.48598 46.32V17.172C6.48598 16.164 6.73798 15.492 7.24198 15.156C7.74598 14.82 8.36198 14.652 9.08998 14.652H21.354C22.054 14.652 22.796 14.806 23.58 15.114C24.364 15.422 25.12 15.814 25.848 16.29H25.806C26.534 16.822 27.094 17.522 27.486 18.39C27.878 19.23 28.074 20.21 28.074 21.33V28.932C28.074 31.2 27.318 32.894 25.806 34.014C25.078 34.546 24.336 34.952 23.58 35.232C22.824 35.512 22.082 35.652 21.354 35.652H15.558ZM53.0637 16.458C53.0637 15.114 53.8897 14.442 55.5417 14.442C57.1937 14.442 58.0197 15.114 58.0197 16.458V45.438C58.0197 46.418 57.5017 47.132 56.4657 47.58H56.5077C56.0597 47.776 55.5837 47.93 55.0797 48.042C54.5757 48.154 54.0857 48.21 53.6097 48.21C53.2457 48.21 52.8677 48.168 52.4757 48.084C52.0837 48.028 51.7057 47.93 51.3417 47.79C51.0057 47.622 50.6837 47.412 50.3757 47.16C50.0957 46.88 49.8717 46.544 49.7037 46.152L40.5897 23.43L39.4557 23.556V46.236C39.4557 47.58 38.6157 48.252 36.9357 48.252C35.2837 48.252 34.4577 47.58 34.4577 46.236V17.298C34.4577 16.15 34.9617 15.38 35.9697 14.988C36.8937 14.624 37.8737 14.442 38.9097 14.442C39.6377 14.442 40.3657 14.596 41.0937 14.904C41.8497 15.184 42.4237 15.73 42.8157 16.542L51.8877 39.306L53.0637 39.18V16.458Z" fill="#83E645"/>
</svg>
