<svg width="2353" height="527" viewBox="0 0 2353 527" fill="none" xmlns="http://www.w3.org/2000/svg">
<g filter="url(#filter0_d_116_50)">
<rect x="412" y="201.241" width="138.92" height="52" transform="rotate(-45 412 201.241)" fill="#5D6CE6"/>
<rect x="503" y="197.241" width="245" height="52" transform="rotate(-45 503 197.241)" fill="#5D6CE6"/>
<rect x="229" y="293.241" width="203.103" height="52" transform="rotate(-45 229 293.241)" fill="#5D6CE6"/>
<rect x="440.479" y="349.762" width="84.5166" height="52" transform="rotate(-45 440.479 349.762)" fill="#5D6CE6"/>
<rect x="316.883" y="383.358" width="255.065" height="52" transform="rotate(-45 316.883 383.358)" fill="#5D6CE6"/>
<rect x="508" y="284.241" width="245" height="52" transform="rotate(-45 508 284.241)" fill="#5D6CE6"/>
<rect x="122.536" y="310.705" width="104.235" height="52" transform="rotate(-45 122.536 310.705)" fill="#5D6CE6"/>
<rect x="20" y="323.241" width="286.223" height="52" transform="rotate(-45 20 323.241)" fill="#5D6CE6"/>
<rect x="203" y="230.241" width="216.398" height="52" transform="rotate(-45 203 230.241)" fill="#5D6CE6"/>
<rect x="49" y="473.241" width="245" height="52" transform="rotate(-45 49 473.241)" fill="#5D6CE6"/>
<rect x="303.686" y="308.555" width="143.621" height="52" transform="rotate(-45 303.686 308.555)" fill="#5D6CE6"/>
</g>
<g filter="url(#filter1_d_116_50)">
<rect x="951" y="201.241" width="138.92" height="52" transform="rotate(-45 951 201.241)" fill="#5D6CE6"/>
<rect x="1042" y="197.241" width="245" height="52" transform="rotate(-45 1042 197.241)" fill="#5D6CE6"/>
<rect x="768" y="293.241" width="203.103" height="52" transform="rotate(-45 768 293.241)" fill="#5D6CE6"/>
<rect x="979.479" y="349.762" width="84.5166" height="52" transform="rotate(-45 979.479 349.762)" fill="#5D6CE6"/>
<rect x="855.883" y="383.358" width="255.065" height="52" transform="rotate(-45 855.883 383.358)" fill="#5D6CE6"/>
<rect x="1047" y="284.241" width="245" height="52" transform="rotate(-45 1047 284.241)" fill="#5D6CE6"/>
<rect x="661.536" y="310.705" width="104.235" height="52" transform="rotate(-45 661.536 310.705)" fill="#5D6CE6"/>
<rect x="559" y="323.241" width="286.223" height="52" transform="rotate(-45 559 323.241)" fill="#5D6CE6"/>
<rect x="742" y="230.241" width="216.398" height="52" transform="rotate(-45 742 230.241)" fill="#5D6CE6"/>
<rect x="588" y="473.241" width="245" height="52" transform="rotate(-45 588 473.241)" fill="#5D6CE6"/>
<rect x="842.686" y="308.555" width="143.621" height="52" transform="rotate(-45 842.686 308.555)" fill="#5D6CE6"/>
</g>
<g filter="url(#filter2_d_116_50)">
<rect x="1490" y="201.241" width="138.92" height="52" transform="rotate(-45 1490 201.241)" fill="#5D6CE6"/>
<rect x="1581" y="197.241" width="245" height="52" transform="rotate(-45 1581 197.241)" fill="#5D6CE6"/>
<rect x="1307" y="293.241" width="203.103" height="52" transform="rotate(-45 1307 293.241)" fill="#5D6CE6"/>
<rect x="1518.48" y="349.762" width="84.5166" height="52" transform="rotate(-45 1518.48 349.762)" fill="#5D6CE6"/>
<rect x="1394.88" y="383.358" width="255.065" height="52" transform="rotate(-45 1394.88 383.358)" fill="#5D6CE6"/>
<rect x="1586" y="284.241" width="245" height="52" transform="rotate(-45 1586 284.241)" fill="#5D6CE6"/>
<rect x="1200.54" y="310.705" width="104.235" height="52" transform="rotate(-45 1200.54 310.705)" fill="#5D6CE6"/>
<rect x="1098" y="323.241" width="286.223" height="52" transform="rotate(-45 1098 323.241)" fill="#5D6CE6"/>
<rect x="1281" y="230.241" width="216.398" height="52" transform="rotate(-45 1281 230.241)" fill="#5D6CE6"/>
<rect x="1127" y="473.241" width="245" height="52" transform="rotate(-45 1127 473.241)" fill="#5D6CE6"/>
<rect x="1381.69" y="308.555" width="143.621" height="52" transform="rotate(-45 1381.69 308.555)" fill="#5D6CE6"/>
</g>
<g filter="url(#filter3_d_116_50)">
<rect x="2026" y="201.241" width="138.92" height="52" transform="rotate(-45 2026 201.241)" fill="#5D6CE6"/>
<rect x="2117" y="197.241" width="245" height="52" transform="rotate(-45 2117 197.241)" fill="#5D6CE6"/>
<rect x="1843" y="293.241" width="203.103" height="52" transform="rotate(-45 1843 293.241)" fill="#5D6CE6"/>
<rect x="2054.48" y="349.762" width="84.5166" height="52" transform="rotate(-45 2054.48 349.762)" fill="#5D6CE6"/>
<rect x="1930.88" y="383.358" width="255.065" height="52" transform="rotate(-45 1930.88 383.358)" fill="#5D6CE6"/>
<rect x="2122" y="284.241" width="245" height="52" transform="rotate(-45 2122 284.241)" fill="#5D6CE6"/>
<rect x="1736.54" y="310.705" width="104.235" height="52" transform="rotate(-45 1736.54 310.705)" fill="#5D6CE6"/>
<rect x="1634" y="323.241" width="286.223" height="52" transform="rotate(-45 1634 323.241)" fill="#5D6CE6"/>
<rect x="1817" y="230.241" width="216.398" height="52" transform="rotate(-45 1817 230.241)" fill="#5D6CE6"/>
<rect x="1663" y="473.241" width="245" height="52" transform="rotate(-45 1663 473.241)" fill="#5D6CE6"/>
<rect x="1917.69" y="308.555" width="143.621" height="52" transform="rotate(-45 1917.69 308.555)" fill="#5D6CE6"/>
</g>
<defs>
<filter id="filter0_d_116_50" x="0" y="-7.62939e-06" width="738.011" height="526.011" filterUnits="userSpaceOnUse" color-interpolation-filters="sRGB">
<feFlood flood-opacity="0" result="BackgroundImageFix"/>
<feColorMatrix in="SourceAlpha" type="matrix" values="0 0 0 0 0 0 0 0 0 0 0 0 0 0 0 0 0 0 127 0" result="hardAlpha"/>
<feOffset dy="-4"/>
<feGaussianBlur stdDeviation="10"/>
<feComposite in2="hardAlpha" operator="out"/>
<feColorMatrix type="matrix" values="0 0 0 0 0 0 0 0 0 0 0 0 0 0 0 0 0 0 0.25 0"/>
<feBlend mode="normal" in2="BackgroundImageFix" result="effect1_dropShadow_116_50"/>
<feBlend mode="normal" in="SourceGraphic" in2="effect1_dropShadow_116_50" result="shape"/>
</filter>
<filter id="filter1_d_116_50" x="539" y="-7.62939e-06" width="738.011" height="526.011" filterUnits="userSpaceOnUse" color-interpolation-filters="sRGB">
<feFlood flood-opacity="0" result="BackgroundImageFix"/>
<feColorMatrix in="SourceAlpha" type="matrix" values="0 0 0 0 0 0 0 0 0 0 0 0 0 0 0 0 0 0 127 0" result="hardAlpha"/>
<feOffset dy="-4"/>
<feGaussianBlur stdDeviation="10"/>
<feComposite in2="hardAlpha" operator="out"/>
<feColorMatrix type="matrix" values="0 0 0 0 0 0 0 0 0 0 0 0 0 0 0 0 0 0 0.25 0"/>
<feBlend mode="normal" in2="BackgroundImageFix" result="effect1_dropShadow_116_50"/>
<feBlend mode="normal" in="SourceGraphic" in2="effect1_dropShadow_116_50" result="shape"/>
</filter>
<filter id="filter2_d_116_50" x="1078" y="-7.62939e-06" width="738.011" height="526.011" filterUnits="userSpaceOnUse" color-interpolation-filters="sRGB">
<feFlood flood-opacity="0" result="BackgroundImageFix"/>
<feColorMatrix in="SourceAlpha" type="matrix" values="0 0 0 0 0 0 0 0 0 0 0 0 0 0 0 0 0 0 127 0" result="hardAlpha"/>
<feOffset dy="-4"/>
<feGaussianBlur stdDeviation="10"/>
<feComposite in2="hardAlpha" operator="out"/>
<feColorMatrix type="matrix" values="0 0 0 0 0 0 0 0 0 0 0 0 0 0 0 0 0 0 0.25 0"/>
<feBlend mode="normal" in2="BackgroundImageFix" result="effect1_dropShadow_116_50"/>
<feBlend mode="normal" in="SourceGraphic" in2="effect1_dropShadow_116_50" result="shape"/>
</filter>
<filter id="filter3_d_116_50" x="1614" y="-7.62939e-06" width="738.011" height="526.011" filterUnits="userSpaceOnUse" color-interpolation-filters="sRGB">
<feFlood flood-opacity="0" result="BackgroundImageFix"/>
<feColorMatrix in="SourceAlpha" type="matrix" values="0 0 0 0 0 0 0 0 0 0 0 0 0 0 0 0 0 0 127 0" result="hardAlpha"/>
<feOffset dy="-4"/>
<feGaussianBlur stdDeviation="10"/>
<feComposite in2="hardAlpha" operator="out"/>
<feColorMatrix type="matrix" values="0 0 0 0 0 0 0 0 0 0 0 0 0 0 0 0 0 0 0.25 0"/>
<feBlend mode="normal" in2="BackgroundImageFix" result="effect1_dropShadow_116_50"/>
<feBlend mode="normal" in="SourceGraphic" in2="effect1_dropShadow_116_50" result="shape"/>
</filter>
</defs>
</svg>
